<?xml version="1.0" encoding="UTF-8"?>
<svg xmlns="http://www.w3.org/2000/svg" viewBox="0 0 200 200" width="200" height="200">
  <defs>
    <!-- Gradients for realistic glass effect -->
    <linearGradient id="glassGradient" x1="0%" y1="0%" x2="100%" y2="100%">
      <stop offset="0%" style="stop-color:#ffffff;stop-opacity:0.2"/>
      <stop offset="50%" style="stop-color:#ffffff;stop-opacity:0.05"/>
      <stop offset="100%" style="stop-color:#ffffff;stop-opacity:0.1"/>
    </linearGradient>

    <!-- Cork gradient -->
    <linearGradient id="corkGradient" x1="0%" y1="0%" x2="100%" y2="100%">
      <stop offset="0%" style="stop-color:#D2B48C"/>
      <stop offset="50%" style="stop-color:#CD853F"/>
      <stop offset="100%" style="stop-color:#A0522D"/>
    </linearGradient>

    <!-- Soil gradient -->
    <linearGradient id="soilGradient" x1="0%" y1="0%" x2="0%" y2="100%">
      <stop offset="0%" style="stop-color:#8B4513"/>
      <stop offset="100%" style="stop-color:#654321"/>
    </linearGradient>

    <!-- Plant gradients -->
    <linearGradient id="leafGreen" x1="0%" y1="0%" x2="100%" y2="100%">
      <stop offset="0%" style="stop-color:#90EE90"/>
      <stop offset="100%" style="stop-color:#228B22"/>
    </linearGradient>

    <linearGradient id="darkGreen" x1="0%" y1="0%" x2="100%" y2="100%">
      <stop offset="0%" style="stop-color:#32CD32"/>
      <stop offset="100%" style="stop-color:#006400"/>
    </linearGradient>

    <!-- Glass rim highlight -->
    <radialGradient id="rimHighlight" cx="50%" cy="30%">
      <stop offset="0%" style="stop-color:#ffffff;stop-opacity:0.6"/>
      <stop offset="100%" style="stop-color:#ffffff;stop-opacity:0"/>
    </radialGradient>
  </defs>

  <!-- Background circle for better contrast -->
  <circle cx="100" cy="100" r="95" fill="#f8f9fa" opacity="0.3"/>

  <!-- Main bottle body -->
  <path d="M75 60 L75 145 Q75 165 100 165 Q125 165 125 145 L125 60 Z"
        fill="url(#glassGradient)"
        stroke="#e0e0e0"
        stroke-width="2"
        opacity="0.9"/>

  <!-- Bottle neck -->
  <rect x="90" y="35" width="20" height="25"
        fill="url(#glassGradient)"
        stroke="#e0e0e0"
        stroke-width="2"
        opacity="0.9"/>

  <!-- Cork stopper -->
  <rect x="85" y="20" width="30" height="20" rx="3"
        fill="url(#corkGradient)"
        stroke="#A0522D"
        stroke-width="1"/>

  <!-- Cork rings -->
  <line x1="87" y1="25" x2="113" y2="25" stroke="#8B4513" stroke-width="1"/>
  <line x1="87" y1="30" x2="113" y2="30" stroke="#8B4513" stroke-width="1"/>
  <line x1="87" y1="35" x2="113" y2="35" stroke="#8B4513" stroke-width="1"/>

  <!-- Soil base inside bottle -->
  <ellipse cx="100" cy="150" rx="35" ry="8" fill="url(#soilGradient)"/>

  <!-- Small hills of soil -->
  <ellipse cx="85" cy="145" rx="15" ry="6" fill="#8B4513"/>
  <ellipse cx="115" cy="148" rx="12" ry="5" fill="#654321"/>
  <ellipse cx="100" cy="142" rx="10" ry="4" fill="#8B4513"/>

  <!-- Plants and foliage -->

  <!-- Large fern-like plant (left) -->
  <g transform="translate(80,130)">
    <path d="M5 15 Q0 10 5 8 Q10 10 5 15" fill="url(#darkGreen)"/>
    <path d="M8 12 Q3 7 8 5 Q13 7 8 12" fill="url(#darkGreen)"/>
    <path d="M2 18 Q-3 13 2 11 Q7 13 2 18" fill="url(#leafGreen)"/>
    <line x1="5" y1="20" x2="5" y2="5" stroke="#228B22" stroke-width="1.5"/>
  </g>

  <!-- Tall grass-like plant (center) -->
  <g transform="translate(100,125)">
    <path d="M0 20 Q-2 5 0 0 Q2 5 0 20" fill="url(#leafGreen)" stroke="#228B22" stroke-width="0.5"/>
    <path d="M3 18 Q1 3 3 -2 Q5 3 3 18" fill="url(#darkGreen)" stroke="#006400" stroke-width="0.5"/>
    <path d="M-3 15 Q-5 0 -3 -5 Q-1 0 -3 15" fill="url(#leafGreen)" stroke="#228B22" stroke-width="0.5"/>
  </g>

  <!-- Small succulent (right) -->
  <g transform="translate(115,135)">
    <ellipse cx="0" cy="8" rx="4" ry="3" fill="url(#leafGreen)"/>
    <ellipse cx="0" cy="5" rx="3" ry="2" fill="url(#darkGreen)"/>
    <ellipse cx="0" cy="2" rx="2" ry="1.5" fill="url(#leafGreen)"/>
    <line x1="0" y1="12" x2="0" y2="8" stroke="#228B22" stroke-width="1"/>
  </g>

  <!-- Small sprouts -->
  <g transform="translate(90,140)">
    <circle cx="0" cy="5" r="2" fill="url(#leafGreen)"/>
    <line x1="0" y1="7" x2="0" y2="3" stroke="#228B22" stroke-width="1"/>
  </g>

  <g transform="translate(110,142)">
    <ellipse cx="0" cy="3" rx="1.5" ry="2" fill="url(#darkGreen)"/>
    <line x1="0" y1="5" x2="0" y2="1" stroke="#006400" stroke-width="0.8"/>
  </g>

  <!-- Tiny flowering element -->
  <g transform="translate(95,135)">
    <circle cx="0" cy="0" r="1" fill="#FFB6C1"/>
    <circle cx="1" cy="-1" r="0.8" fill="#FF69B4"/>
    <circle cx="-1" cy="-1" r="0.8" fill="#FF69B4"/>
    <line x1="0" y1="2" x2="0" y2="-2" stroke="#228B22" stroke-width="0.5"/>
  </g>

  <!-- Another small plant cluster -->
  <g transform="translate(105,138)">
    <path d="M0 5 Q-2 0 0 -2 Q2 0 0 5" fill="url(#leafGreen)"/>
    <path d="M2 3 Q0 -2 2 -4 Q4 -2 2 3" fill="url(#darkGreen)"/>
  </g>

  <!-- Glass highlights for realism -->
  <ellipse cx="95" cy="80" rx="8" ry="25" fill="url(#rimHighlight)" opacity="0.3"/>
  <ellipse cx="105" cy="40" rx="3" ry="8" fill="url(#rimHighlight)" opacity="0.4"/>

  <!-- Bottle rim highlight -->
  <ellipse cx="100" cy="60" rx="25" ry="3" fill="none" stroke="#ffffff" stroke-width="1" opacity="0.4"/>

  <!-- Cork top highlight -->
  <ellipse cx="100" cy="25" rx="12" ry="2" fill="#F4A460" opacity="0.6"/>
</svg>