<?xml version="1.0" encoding="iso-8859-1"?>
<!-- Uploaded to: SVG Repo, www.svgrepo.com, Generator: SVG Repo Mixer Tools -->
<svg height="800px" width="800px" version="1.1" id="Layer_1" xmlns="http://www.w3.org/2000/svg" xmlns:xlink="http://www.w3.org/1999/xlink" 
	 viewBox="0 0 512.001 512.001" xml:space="preserve">
<path style="fill:#D6DAE6;" d="M123.255,159.125L123.255,159.125L123.255,159.125c-30.791-18.15-61.301,23.843-34.524,47.518l0,0
	l0,0c-34.893-7.748-50.934,41.619-18.15,55.861l0,0l0,0c-35.58,3.414-35.58,55.321,0,58.735l0,0l0,0
	c-32.783,14.241-16.743,63.609,18.15,55.861l0,0l0,0c-26.778,23.675,3.733,65.669,34.524,47.518l0,0l0,0
	c-18.152,30.791,23.842,61.301,47.518,34.524l0,0l0,0c-7.748,34.893,41.619,50.934,55.861,18.15l0,0l0,0
	c3.414,35.58,55.321,35.58,58.735,0l0,0l0,0c14.241,32.783,63.609,16.743,55.861-18.15l0,0l0,0
	c23.675,26.778,65.669-3.733,47.518-34.524l0,0l0,0c30.791,18.152,61.301-23.842,34.524-47.518l0,0l0,0
	c34.893,7.748,50.934-41.619,18.151-55.861l0,0l0,0c35.58-3.414,35.58-55.321,0-58.735l0,0l0,0
	c32.783-14.241,16.742-63.609-18.151-55.861l0,0l0,0c26.778-23.675-3.733-65.669-34.524-47.518l0,0l0,0L123.255,159.125
	L123.255,159.125z"/>
<g>
	<path style="fill:#FFA0C1;" d="M444.678,107.945c18.01-2.46,33.279,13.316,30.203,31.231
		c-5.608,32.673-28.514,75.791-114.448,49.162l-6.458-37.437C389.665,121.209,422.192,111.015,444.678,107.945z"/>
	<path style="fill:#FFA0C1;" d="M67.324,107.945c-18.01-2.46-33.279,13.316-30.203,31.231
		c5.608,32.673,28.514,75.791,114.448,49.162l6.458-37.437C122.337,121.209,89.809,111.015,67.324,107.945z"/>
</g>
<path style="opacity:0.1;enable-background:new    ;" d="M63.868,139.175c-2.17-12.64,4.797-24.205,15.411-29.061
	c-4.237-0.953-8.236-1.662-11.954-2.17c-18.01-2.459-33.279,13.316-30.203,31.231c4.79,27.899,22.2,63.404,80.684,56.608
	C80.437,190.558,67.83,162.262,63.868,139.175z"/>
<path style="opacity:0.1;enable-background:new    ;" d="M360.433,188.338c24.23,7.508,43.447,9.471,58.68,7.686
	c-9.26-23.425-22.381-45.043-38.969-63.992c-8.451,5.192-17.21,11.415-26.168,18.868L360.433,188.338z"/>
<path style="fill:#FFA0C1;" d="M353.975,150.901c92.464,102.201,50.739,286.22-97.974,286.22s-190.438-184.019-97.974-286.22
	L353.975,150.901L353.975,150.901z"/>
<path style="opacity:0.1;enable-background:new    ;" d="M190.123,150.901h-32.096c-92.464,102.201-50.739,286.22,97.974,286.22
	c5.497,0,10.844-0.258,16.048-0.748C136.487,423.622,101.077,249.324,190.123,150.901z"/>
<path style="fill:#DDE1ED;" d="M356.969,129.353L356.969,129.353L356.969,129.353c30.759-16.702,15.521-63.601-19.181-59.033l0,0
	l0,0c15.067-31.592-24.827-60.577-50.217-36.484l0,0l0,0c-6.38-34.415-55.691-34.415-62.071,0l0,0l0,0
	c-25.389-24.093-65.284,4.893-50.217,36.484l0,0l0,0c-34.702-4.567-49.94,42.331-19.181,59.033l0,0l0,0
	c-30.759,16.702-15.521,63.6,19.181,59.033l0,0l0,0c-15.067,31.592,24.827,60.577,50.217,36.485l0,0l0,0
	c6.38,34.415,55.691,34.415,62.071,0l0,0l0,0c25.389,24.093,65.284-4.893,50.217-36.485l0,0l0,0
	C372.49,192.954,387.728,146.056,356.969,129.353z"/>
<circle cx="182.383" cy="264.784" r="14.037"/>
<circle cx="329.652" cy="264.784" r="14.037"/>
<path d="M306.875,336.144c-13.268,5.748-23.726,6.589-31.083,2.499c-4.919-2.736-7.876-7.395-9.604-11.361
	c5.195-2.032,9.731-5.604,12.934-10.369c2.473-3.678,1.496-8.664-2.183-11.136c-3.677-2.473-8.663-1.496-11.135,2.183
	c-2.186,3.251-5.843,5.192-9.783,5.192c-3.914,0-7.558-1.92-9.747-5.139c-2.493-3.663-7.483-4.614-11.148-2.121
	c-3.664,2.493-4.613,7.484-2.12,11.147c3.199,4.701,7.704,8.227,12.856,10.242c-1.714,3.94-4.646,8.565-9.521,11.312
	c-7.363,4.148-17.852,3.324-31.173-2.449c-4.066-1.762-8.79,0.106-10.553,4.171c-1.762,4.067,0.106,8.791,4.173,10.553
	c18.174,7.876,33.459,8.449,45.431,1.705c5.126-2.888,8.955-6.776,11.803-10.8c2.848,4.025,6.677,7.913,11.803,10.8
	c5.52,3.109,11.742,4.663,18.629,4.663c8.05,0,17.007-2.124,26.803-6.369c4.067-1.762,5.935-6.487,4.173-10.553
	C315.666,336.248,310.941,334.382,306.875,336.144z"/>
<path d="M35.878,291.871c0,11.88,5.558,24.947,17.458,32.117c-7.316,8.381-10.304,19.671-7.811,31.665
	c3.102,14.924,13.966,26.082,27.67,29.326c-3.591,8.38-3.797,17.771-0.31,26.977c5.689,15.021,19.755,25.114,35.004,25.114
	c1.023,0,2.042-0.044,3.058-0.132c-0.626,7.133,0.91,14.259,4.625,20.761c6.854,11.997,20.03,19.749,33.568,19.749
	c4.76,0,9.395-0.963,13.731-2.806c1.182,5.14,3.486,9.927,6.858,14.13c7.24,9.023,18.646,14.41,30.513,14.41
	c9.033,0,17.21-3.091,23.633-8.667c7.165,11.919,20.243,17.485,32.132,17.485c11.887,0,24.966-5.566,32.131-17.485
	c6.421,5.576,14.6,8.667,23.633,8.667c11.868,0,23.274-5.387,30.514-14.409c3.371-4.203,5.675-8.991,6.857-14.131
	c4.336,1.844,8.97,2.806,13.73,2.806c13.538,0,26.716-7.751,33.57-19.748c3.715-6.502,5.252-13.628,4.625-20.762
	c1.015,0.088,2.035,0.132,3.058,0.132c15.25,0,29.318-10.093,35.005-25.114c3.487-9.205,3.28-18.597-0.311-26.977
	c13.703-3.243,24.568-14.398,27.67-29.32c2.495-11.997-0.493-23.288-7.812-31.672c11.901-7.168,17.458-20.237,17.458-32.116
	c0-11.879-5.558-24.946-17.459-32.116c7.317-8.382,10.304-19.671,7.812-31.665c-3.017-14.517-13.388-25.448-26.564-29.02
	c22.937-9.1,37.82-29.109,42.872-58.536c1.744-10.162-1.068-20.512-7.714-28.397c-6.68-7.925-16.406-12.469-26.683-12.469
	c-1.592,0-3.207,0.11-4.799,0.328c-29.033,3.964-54.071,16.419-71.825,27.856c8.615-9.482,11.94-22.49,8.548-35.843
	c-4.033-15.882-16.399-27.155-31.713-29.549c1.486-9.174-0.341-18.407-5.421-26.457C335.751,24.22,322.652,16.9,309,16.9
	c-6.068,0-11.898,1.426-17.26,4.186C284.496,6.609,269.857,0,256.541,0c-13.315,0-27.954,6.609-35.198,21.082
	c-5.362-2.759-11.192-4.186-17.26-4.186c-13.653,0-26.752,7.32-34.188,19.104c-5.08,8.05-6.906,17.284-5.42,26.458
	c-15.315,2.394-27.682,13.667-31.715,29.548c-3.573,14.07,0.297,27.764,9.971,37.346c-0.027,0.027-0.05,0.056-0.077,0.082
	c-9.274-6.163-18.773-11.486-28.329-15.838c-4.032-1.837-8.791-0.057-10.628,3.976c-1.837,4.032-0.057,8.791,3.976,10.628
	c8.834,4.024,17.638,8.951,26.251,14.683c0.039,0.026-1.403,4.543-1.504,4.99c-2.598,11.424,0.245,23.96,7.223,33.332
	c0.439,0.588,0.887,1.167,1.354,1.727c0.022,0.026,0.042,0.055,0.063,0.081c-1.161,0.312-2.323,0.618-3.489,0.912
	c-21.541,5.394-47.293,8.688-67.233-3.541c-13.346-8.186-21.859-22.507-25.302-42.566c-1.027-5.984,0.811-11.929,5.046-16.31
	c7.362-7.619,17.803-5.71,27.08-3.648c4.324,0.962,8.613-1.765,9.574-6.092c0.962-4.326-1.765-8.613-6.092-9.574
	c-15.268-3.394-30.389-3.959-42.103,8.162c-7.825,8.099-11.223,19.099-9.322,30.178c4.199,24.464,15.516,42.974,32.729,53.53
	c3.171,1.945,6.54,3.612,10.089,5.021c-13.151,3.588-23.5,14.509-26.513,29.005c-2.493,11.993,0.496,23.284,7.813,31.666
	C41.435,266.924,35.878,279.993,35.878,291.871z M372.063,182.963c3.231-3.857,5.724-8.356,7.328-13.123
	c0.033-0.098,0.07-0.194,0.102-0.292c2.315-7.048,3.007-15.12,0.932-22.316c-0.118-0.407-1.656-4.794-1.476-4.913
	c27.217-17.918,51.139-24.283,66.821-26.425c6.449-0.883,12.849,1.61,17.041,6.584c3.644,4.322,5.124,9.77,4.168,15.339
	c-2.49,14.504-8.243,29.044-19.843,38.65c-10.852,8.987-25.164,12.144-38.975,12.144c-12.027,0-24.047-2.144-35.655-5.175
	c-0.223-0.058-0.45-0.124-0.674-0.184C371.912,183.159,371.983,183.058,372.063,182.963z M148.313,95.956
	c2.1-8.268,9.203-17.925,22.307-17.925c4.212,0,8.25,1.011,11.161-2.997c1.729-2.38,2.017-5.515,0.751-8.171
	c-3.647-7.645-3.314-15.566,0.935-22.302c4.454-7.059,12.546-11.62,20.617-11.62c5.774,0,11.271,2.321,15.898,6.71
	c4.543,4.309,12.277,1.781,13.415-4.357c2.632-14.207,14.113-19.248,23.144-19.248c9.031,0,20.512,5.041,23.146,19.248
	c1.142,6.158,8.869,8.669,13.413,4.36c4.627-4.391,10.125-6.711,15.899-6.711c8.069,0,16.161,4.562,20.616,11.621
	c4.25,6.735,4.582,14.655,0.936,22.301c-1.266,2.655-0.978,5.79,0.75,8.17c2.911,4.008,6.954,2.997,11.16,2.997
	c13.103,0,20.205,9.657,22.306,17.926c2.161,8.511,0.244,19.9-11.621,26.343c-5.497,2.985-5.494,11.121,0,14.104
	c12.243,6.648,15.819,22.12,8.37,33.828c-3.056,4.802-7.861,8.238-13.364,9.659c-5.453,1.408-13.044-1.463-16.851,3.778
	c-2.225,3.063-1.486,6.291-0.144,9.538c0.035,0.086,0.066,0.17,0.101,0.256c3.259,8.1,1.724,17.365-4.101,23.909
	c-0.04,0.044-0.077,0.089-0.117,0.133c-0.173,0.192-0.349,0.38-0.526,0.565c-2.367,2.468-5.249,4.46-8.405,5.779
	c-8.717,3.643-18.203,1.656-25.008-4.798c-2.133-2.025-5.202-2.721-8.003-1.81c-2.798,0.909-4.873,3.276-5.41,6.169
	c-0.935,5.044-2.998,8.915-5.659,11.833c-4.832,5.3-11.663,7.416-17.487,7.416c-6.369,0-13.944-2.527-18.788-8.989
	c-2.024-2.7-3.582-6.073-4.359-10.26c-0.536-2.893-2.613-5.26-5.433-6.174c-4.062-1.318-6.749,0.919-9.705,3.321
	c-0.025,0.02-0.05,0.043-0.075,0.062c-6.954,5.507-16.316,6.59-24.307,2.739c-0.039-0.018-0.078-0.035-0.117-0.055
	c-5.373-2.64-9.879-7.181-12.138-12.762c-2.459-6.074-1.883-12.85,0.909-18.7c1.253-2.625,0.958-5.82-0.751-8.171
	c-3.609-4.965-9.712-2.507-14.81-3.357c-6.4-1.067-12.068-4.776-15.524-10.282c-7.344-11.695-3.656-27.029,8.492-33.626
	c5.505-2.989,5.476-11.129,0-14.103C148.07,115.857,146.152,104.468,148.313,95.956z M71.352,270.491
	c3.642-0.35,6.586-3.119,7.159-6.732s-1.373-7.157-4.728-8.615c-11.829-5.139-14.238-15.658-12.549-23.789
	c1.811-8.714,8.78-17.507,20.268-17.507c1.766,0,3.615,0.212,5.495,0.629c5.815,1.291,11.109-4.344,9.445-10.072
	c0.412,0.029,0.835,0.042,1.249,0.065c0.09,0.005,0.182,0.01,0.272,0.014c1.934,0.107,3.892,0.177,5.89,0.177
	c3.799,0,7.744-0.199,11.822-0.586c-22.874,57.155-18.7,123.213,11.747,172.019c27.779,44.529,73.445,69.052,128.585,69.052
	c34.632,0,65.089-9.379,90.525-27.874c3.584-2.606,4.377-7.624,1.771-11.209c-2.606-3.584-7.624-4.377-11.209-1.771
	c-22.635,16.459-49.917,24.805-81.087,24.805c-49.398,0-90.228-21.84-114.969-61.498c-29.378-47.092-31.875-112.003-6.66-166.443
	c3.802-0.81,7.581-1.743,11.333-2.761c1.634-0.444,9.404-2.487,11.163-4.037c0.02-0.018,0.043-0.033,0.063-0.051
	c2.407,0.901,4.909,1.552,7.488,1.95c-2.319,13.999,3.907,28.287,14.993,36.922c0.048,0.037,0.096,0.076,0.144,0.112
	c5.871,4.496,12.955,7.384,20.307,8.213c7.838,0.884,14.26-1.162,21.465-3.752c3.888,5.754,7.444,11.084,13.566,14.784
	c7.974,4.82,17.41,7.001,26.676,5.858c12.597-1.564,24.408-9.298,30.15-20.746c27.349,14.156,61.97-11.009,56.929-41.396
	c0.034,0.206,6.445-1.596,6.995-1.535c1.736,0.193,4.62,1.963,6.497,2.508c5.112,1.484,10.275,2.821,15.482,3.931
	c28.456,61.468,21.086,136-18.416,182.541c-2.867,3.379-2.453,8.442,0.925,11.31c3.379,2.868,8.442,2.454,11.31-0.924
	c21.87-25.769,35.236-58.992,38.65-96.076c2.95-32.035-1.8-64.213-13.74-93.927c4.076,0.387,8.02,0.585,11.822,0.585
	c2.517,0,4.979-0.089,7.386-0.259c-0.554,1.911-0.396,4.012,0.556,5.881c1.66,3.26,5.319,4.982,8.889,4.191
	c1.88-0.417,3.729-0.629,5.495-0.629c11.485,0,18.454,8.793,20.265,17.509c1.69,8.131-0.718,18.65-12.546,23.788
	c-3.356,1.457-5.301,5.002-4.728,8.615c0.573,3.613,3.517,6.383,7.159,6.732c14.339,1.376,19.427,12.377,19.427,21.379
	c0,9.003-5.088,20.005-19.427,21.38c-3.642,0.35-6.586,3.119-7.159,6.732c-0.572,3.613,1.373,7.156,4.728,8.615
	c11.831,5.14,14.239,15.661,12.549,23.793c-1.811,8.713-8.778,17.503-20.266,17.503c-1.769,0-3.617-0.212-5.496-0.629
	c-3.573-0.794-7.227,0.931-8.889,4.191s-0.906,7.231,1.835,9.654c10.096,8.926,7.671,19.171,6.159,23.162
	c-3.288,8.683-11.512,14.748-19.997,14.748c-3.763,0-7.563-1.116-11.297-3.317c-3.153-1.858-7.162-1.349-9.749,1.239
	c-2.587,2.587-3.096,6.597-1.238,9.748c4.156,7.051,4.393,14.525,0.668,21.047c-3.985,6.976-11.876,11.661-19.635,11.661
	c-5.842,0-11.244-2.619-15.626-7.574c-2.423-2.742-6.396-3.495-9.654-1.835c-3.26,1.662-4.983,5.317-4.191,8.89
	c1.516,6.825,0.259,12.996-3.634,17.85c-4.159,5.184-11.055,8.404-17.996,8.404c-4.994,0-14.107-1.694-19.036-13.04
	c-1.458-3.356-5.003-5.3-8.615-4.728c-3.613,0.572-6.383,3.517-6.732,7.159c-1.376,14.339-12.377,19.427-21.379,19.427
	c-9.003,0-20.005-5.087-21.38-19.427c-0.35-3.642-3.119-6.586-6.732-7.159c-0.422-0.067-0.843-0.099-1.259-0.099
	c-3.153,0-6.068,1.864-7.355,4.827c-4.929,11.345-14.042,13.04-19.036,13.04c-6.94,0-13.837-3.22-17.995-8.405
	c-3.893-4.853-5.15-11.025-3.635-17.849c0.793-3.572-0.931-7.228-4.191-8.89c-3.259-1.66-7.23-0.906-9.654,1.835
	c-4.381,4.955-9.784,7.574-15.626,7.574c-7.759,0-15.649-4.687-19.634-11.662c-3.726-6.522-3.49-13.996,0.665-21.046
	c1.858-3.152,1.349-7.162-1.239-9.749c-2.587-2.587-6.597-3.097-9.749-1.239c-3.733,2.201-7.534,3.317-11.296,3.317
	c-8.485,0-16.707-6.065-19.996-14.749c-1.512-3.991-3.936-14.236,6.158-23.161c2.741-2.423,3.495-6.395,1.835-9.654
	c-1.662-3.26-5.319-4.986-8.889-4.191c-1.88,0.417-3.729,0.629-5.495,0.629c-11.485,0-18.454-8.793-20.266-17.509
	c-1.689-8.131,0.719-18.65,12.546-23.788c3.356-1.458,5.301-5.001,4.728-8.615c-0.573-3.614-3.517-6.383-7.159-6.732
	c-14.339-1.376-19.427-12.377-19.427-21.38C51.927,282.868,57.014,271.867,71.352,270.491z"/>
</svg>